<svg width="452" height="37" viewBox="0 0 452 37" fill="none" xmlns="http://www.w3.org/2000/svg">
<path d="M24.376 31.384C22.648 31.384 21.0373 31.1067 19.544 30.552C18.072 29.976 16.792 29.1653 15.704 28.12C14.616 27.0747 13.7627 25.848 13.144 24.44C12.5467 23.032 12.248 21.4853 12.248 19.8C12.248 18.1147 12.5467 16.568 13.144 15.16C13.7627 13.752 14.616 12.5253 15.704 11.48C16.8133 10.4347 18.104 9.63467 19.576 9.08C21.048 8.504 22.6587 8.216 24.408 8.216C26.3493 8.216 28.0987 8.55733 29.656 9.24C31.2347 9.90133 32.5573 10.8827 33.624 12.184L30.296 15.256C29.528 14.3813 28.6747 13.7307 27.736 13.304C26.7973 12.856 25.7733 12.632 24.664 12.632C23.6187 12.632 22.6587 12.8027 21.784 13.144C20.9093 13.4853 20.152 13.976 19.512 14.616C18.872 15.256 18.3707 16.0133 18.008 16.888C17.6667 17.7627 17.496 18.7333 17.496 19.8C17.496 20.8667 17.6667 21.8373 18.008 22.712C18.3707 23.5867 18.872 24.344 19.512 24.984C20.152 25.624 20.9093 26.1147 21.784 26.456C22.6587 26.7973 23.6187 26.968 24.664 26.968C25.7733 26.968 26.7973 26.7547 27.736 26.328C28.6747 25.88 29.528 25.208 30.296 24.312L33.624 27.384C32.5573 28.6853 31.2347 29.6773 29.656 30.36C28.0987 31.0427 26.3387 31.384 24.376 31.384ZM47.536 31.384C45.7653 31.384 44.1227 31.096 42.608 30.52C41.1147 29.944 39.8133 29.1333 38.704 28.088C37.616 27.0427 36.7627 25.816 36.144 24.408C35.5467 23 35.248 21.464 35.248 19.8C35.248 18.136 35.5467 16.6 36.144 15.192C36.7627 13.784 37.6267 12.5573 38.736 11.512C39.8453 10.4667 41.1467 9.656 42.64 9.08C44.1333 8.504 45.7547 8.216 47.504 8.216C49.2747 8.216 50.896 8.504 52.368 9.08C53.8613 9.656 55.152 10.4667 56.24 11.512C57.3493 12.5573 58.2133 13.784 58.832 15.192C59.4507 16.5787 59.76 18.1147 59.76 19.8C59.76 21.464 59.4507 23.0107 58.832 24.44C58.2133 25.848 57.3493 27.0747 56.24 28.12C55.152 29.144 53.8613 29.944 52.368 30.52C50.896 31.096 49.2853 31.384 47.536 31.384ZM47.504 26.968C48.5067 26.968 49.424 26.7973 50.256 26.456C51.1093 26.1147 51.856 25.624 52.496 24.984C53.136 24.344 53.6267 23.5867 53.968 22.712C54.3307 21.8373 54.512 20.8667 54.512 19.8C54.512 18.7333 54.3307 17.7627 53.968 16.888C53.6267 16.0133 53.136 15.256 52.496 14.616C51.8773 13.976 51.1413 13.4853 50.288 13.144C49.4347 12.8027 48.5067 12.632 47.504 12.632C46.5013 12.632 45.5733 12.8027 44.72 13.144C43.888 13.4853 43.152 13.976 42.512 14.616C41.872 15.256 41.3707 16.0133 41.008 16.888C40.6667 17.7627 40.496 18.7333 40.496 19.8C40.496 20.8453 40.6667 21.816 41.008 22.712C41.3707 23.5867 41.8613 24.344 42.48 24.984C43.12 25.624 43.8667 26.1147 44.72 26.456C45.5733 26.7973 46.5013 26.968 47.504 26.968ZM63.656 31V8.6H68.84V26.776H80.072V31H63.656ZM87.7365 17.624H98.5205V21.656H87.7365V17.624ZM88.1205 26.84H100.312V31H82.9685V8.6H99.8965V12.76H88.1205V26.84ZM115.157 31.384C113.429 31.384 111.819 31.1067 110.325 30.552C108.853 29.976 107.573 29.1653 106.485 28.12C105.397 27.0747 104.544 25.848 103.925 24.44C103.328 23.032 103.029 21.4853 103.029 19.8C103.029 18.1147 103.328 16.568 103.925 15.16C104.544 13.752 105.397 12.5253 106.485 11.48C107.595 10.4347 108.885 9.63467 110.357 9.08C111.829 8.504 113.44 8.216 115.189 8.216C117.131 8.216 118.88 8.55733 120.437 9.24C122.016 9.90133 123.339 10.8827 124.405 12.184L121.077 15.256C120.309 14.3813 119.456 13.7307 118.517 13.304C117.579 12.856 116.555 12.632 115.445 12.632C114.4 12.632 113.44 12.8027 112.565 13.144C111.691 13.4853 110.933 13.976 110.293 14.616C109.653 15.256 109.152 16.0133 108.789 16.888C108.448 17.7627 108.277 18.7333 108.277 19.8C108.277 20.8667 108.448 21.8373 108.789 22.712C109.152 23.5867 109.653 24.344 110.293 24.984C110.933 25.624 111.691 26.1147 112.565 26.456C113.44 26.7973 114.4 26.968 115.445 26.968C116.555 26.968 117.579 26.7547 118.517 26.328C119.456 25.88 120.309 25.208 121.077 24.312L124.405 27.384C123.339 28.6853 122.016 29.6773 120.437 30.36C118.88 31.0427 117.12 31.384 115.157 31.384ZM127.906 31V8.6H133.09V31H127.906ZM149.286 31.384C147.515 31.384 145.873 31.096 144.358 30.52C142.865 29.944 141.563 29.1333 140.454 28.088C139.366 27.0427 138.513 25.816 137.894 24.408C137.297 23 136.998 21.464 136.998 19.8C136.998 18.136 137.297 16.6 137.894 15.192C138.513 13.784 139.377 12.5573 140.486 11.512C141.595 10.4667 142.897 9.656 144.39 9.08C145.883 8.504 147.505 8.216 149.254 8.216C151.025 8.216 152.646 8.504 154.118 9.08C155.611 9.656 156.902 10.4667 157.99 11.512C159.099 12.5573 159.963 13.784 160.582 15.192C161.201 16.5787 161.51 18.1147 161.51 19.8C161.51 21.464 161.201 23.0107 160.582 24.44C159.963 25.848 159.099 27.0747 157.99 28.12C156.902 29.144 155.611 29.944 154.118 30.52C152.646 31.096 151.035 31.384 149.286 31.384ZM149.254 26.968C150.257 26.968 151.174 26.7973 152.006 26.456C152.859 26.1147 153.606 25.624 154.246 24.984C154.886 24.344 155.377 23.5867 155.718 22.712C156.081 21.8373 156.262 20.8667 156.262 19.8C156.262 18.7333 156.081 17.7627 155.718 16.888C155.377 16.0133 154.886 15.256 154.246 14.616C153.627 13.976 152.891 13.4853 152.038 13.144C151.185 12.8027 150.257 12.632 149.254 12.632C148.251 12.632 147.323 12.8027 146.47 13.144C145.638 13.4853 144.902 13.976 144.262 14.616C143.622 15.256 143.121 16.0133 142.758 16.888C142.417 17.7627 142.246 18.7333 142.246 19.8C142.246 20.8453 142.417 21.816 142.758 22.712C143.121 23.5867 143.611 24.344 144.23 24.984C144.87 25.624 145.617 26.1147 146.47 26.456C147.323 26.7973 148.251 26.968 149.254 26.968ZM162.149 31L172.134 8.6H177.254L187.27 31H181.83L173.638 11.224H175.686L167.462 31H162.149ZM167.141 26.2L168.518 22.264H180.038L181.446 26.2H167.141ZM171.782 6.776L176.102 2.168H181.478L175.686 6.776H171.782ZM195.095 31L185.431 8.6H191.031L199.479 28.44H196.183L204.759 8.6H209.911L200.215 31H195.095ZM216.549 17.624H227.333V21.656H216.549V17.624ZM216.933 26.84H229.125V31H211.781V8.6H228.709V12.76H216.933V26.84ZM233.25 31V8.6H238.434V31H233.25ZM251.11 31.384C249.318 31.384 247.6 31.1493 245.958 30.68C244.315 30.1893 242.992 29.56 241.99 28.792L243.75 24.888C244.71 25.5707 245.84 26.136 247.142 26.584C248.464 27.0107 249.798 27.224 251.142 27.224C252.166 27.224 252.987 27.128 253.606 26.936C254.246 26.7227 254.715 26.4347 255.014 26.072C255.312 25.7093 255.462 25.2933 255.462 24.824C255.462 24.2267 255.227 23.7573 254.758 23.416C254.288 23.0533 253.67 22.7653 252.902 22.552C252.134 22.3173 251.28 22.104 250.342 21.912C249.424 21.6987 248.496 21.4427 247.558 21.144C246.64 20.8453 245.798 20.4613 245.03 19.992C244.262 19.5227 243.632 18.904 243.142 18.136C242.672 17.368 242.438 16.3867 242.438 15.192C242.438 13.912 242.779 12.7493 243.462 11.704C244.166 10.6373 245.211 9.79467 246.598 9.176C248.006 8.536 249.766 8.216 251.878 8.216C253.286 8.216 254.672 8.38667 256.038 8.728C257.403 9.048 258.608 9.53867 259.654 10.2L258.054 14.136C257.008 13.5387 255.963 13.1013 254.918 12.824C253.872 12.5253 252.848 12.376 251.846 12.376C250.843 12.376 250.022 12.4933 249.382 12.728C248.742 12.9627 248.283 13.272 248.006 13.656C247.728 14.0187 247.59 14.4453 247.59 14.936C247.59 15.512 247.824 15.9813 248.294 16.344C248.763 16.6853 249.382 16.9627 250.15 17.176C250.918 17.3893 251.76 17.6027 252.678 17.816C253.616 18.0293 254.544 18.2747 255.462 18.552C256.4 18.8293 257.254 19.2027 258.022 19.672C258.79 20.1413 259.408 20.76 259.878 21.528C260.368 22.296 260.614 23.2667 260.614 24.44C260.614 25.6987 260.262 26.8507 259.558 27.896C258.854 28.9413 257.798 29.784 256.39 30.424C255.003 31.064 253.243 31.384 251.11 31.384Z" fill="white"/>
<path d="M3 0L3 37" stroke="#007CEB" stroke-width="6"/>
</svg>
